<svg width="147" height="133" viewBox="0 0 147 133" fill="none" xmlns="http://www.w3.org/2000/svg">
<g opacity="0.6" clip-path="url(#clip0_61_1082)">
<path d="M132.85 36.6958C126.284 37.6304 117.967 39.9078 109.427 43.1081C100.888 46.3084 93.2261 50.0194 87.8529 53.559C87.7317 53.6387 87.6335 53.7361 87.519 53.8205C87.6126 53.7172 87.7154 53.6236 87.8032 53.5145C91.7162 48.6522 95.8176 41.7209 99.3548 33.995C102.892 26.2693 105.409 18.7439 106.442 12.8025C107.014 9.52193 105.034 6.33981 101.624 5.0615C98.2187 3.78527 94.3321 4.76952 92.1739 7.45524C88.2609 12.3175 84.1595 19.2489 80.6223 26.9748C77.0854 34.7005 74.5683 42.2259 73.5353 48.1673C73.5098 48.3158 73.5161 48.4616 73.5006 48.6096C73.4851 48.4618 73.4914 48.3156 73.4658 48.1667C72.4328 42.2264 69.9157 34.7008 66.3785 26.9745C62.8413 19.2483 58.7397 12.3165 54.8276 7.45498C52.6659 4.76978 48.7805 3.78527 45.3702 5.06332C41.9665 6.33877 39.9889 9.5209 40.5588 12.8025C41.5918 18.7428 44.1089 26.2685 47.6461 33.9947C51.1833 41.7209 55.2849 48.6528 59.1971 53.5143C59.295 53.6359 59.4138 53.7353 59.5183 53.8496C59.392 53.7551 59.2823 53.6478 59.148 53.5592C53.7739 50.0189 46.1129 46.3081 37.5737 43.1078C29.0348 39.9078 20.7172 37.6304 14.1505 36.6958C10.528 36.1799 7.0092 37.9676 5.59461 41.0546C4.1849 44.1339 5.27247 47.6508 8.24032 49.6048C13.6144 53.1452 21.2754 56.8559 29.8146 60.0562C38.3535 63.2563 46.6711 65.5336 53.2378 66.4683C53.3851 66.4896 53.5313 66.4896 53.678 66.5028C53.5307 66.5163 53.3851 66.5104 53.2373 66.5311C46.6716 67.4658 38.3538 69.7431 29.8143 72.9435C21.2748 76.1438 13.6133 79.8548 8.24004 83.3943C5.27219 85.3501 4.18404 88.8655 5.59662 91.951C7.00633 95.0305 10.5234 96.8198 14.1505 96.3042C20.7161 95.3695 29.0339 93.0922 37.5734 89.8919C46.1129 86.6916 53.7744 82.9805 59.1477 79.441C59.2815 79.3527 59.3906 79.2461 59.5169 79.1519C59.413 79.2659 59.2947 79.3646 59.1976 79.4854C55.2846 84.3477 51.1833 91.279 47.6461 99.005C44.1092 106.731 41.5921 114.256 40.5591 120.197C39.9872 123.478 41.9668 126.66 45.3768 127.938C47.3883 128.692 49.5674 128.657 51.4612 127.948C52.7716 127.457 53.9435 126.643 54.827 125.545C58.74 120.682 62.8413 113.751 66.3785 106.025C69.9154 98.2994 72.4325 90.774 73.4655 84.8327C73.4911 84.6841 73.4848 84.5384 73.5003 84.3903C73.5158 84.5381 73.5095 84.6843 73.535 84.8332C74.568 90.7735 77.0851 98.2992 80.6223 106.025C84.1595 113.752 88.2611 120.683 92.1733 125.545C94.3349 128.23 98.2204 129.215 101.631 127.937C105.034 126.661 107.012 123.479 106.442 120.197C105.409 114.257 102.892 106.731 99.3548 99.0052C95.8176 91.279 91.7159 84.3472 87.8038 79.4857C87.7059 79.3641 87.587 79.2646 87.4825 79.1503C87.6088 79.2449 87.7185 79.3521 87.8529 79.4407C93.227 82.9811 100.888 86.6918 109.427 89.8921C117.966 93.0922 126.284 95.3695 132.85 96.3042C134.332 96.5159 135.797 96.3413 137.107 95.8504C139.001 95.1409 140.571 93.7694 141.406 91.9453C142.816 88.8661 141.728 85.3491 138.761 83.3951C133.386 79.8548 125.725 76.144 117.186 72.9437C108.647 69.7437 100.33 67.4663 93.763 66.5317C93.5985 66.5085 93.4372 66.514 93.2732 66.5002C93.4369 66.4862 93.5991 66.4919 93.7636 66.4688C100.329 65.5342 108.647 63.2568 117.187 60.0565C125.726 56.8562 133.388 53.1452 138.761 49.6056C141.729 47.6498 142.817 44.1344 141.404 41.0489C139.994 37.9694 136.477 36.1799 132.85 36.6958Z" fill="#F5EBDC"/>
<path d="M112.336 49.4631L78.1828 62.2628L92.3298 31.3613C92.8655 30.1911 92.252 28.8504 90.9583 28.3657C89.6648 27.881 88.1831 28.4361 87.6473 29.6066L73.5 60.5081L59.3533 29.6071C58.8175 28.4371 57.3349 27.8815 56.0417 28.366C54.7486 28.8507 54.1345 30.1921 54.6699 31.3618L68.8167 62.2628L34.6624 49.4631C33.369 48.9784 31.8872 49.5335 31.3515 50.704C30.8157 51.8745 31.4293 53.2149 32.723 53.6996L66.8775 66.4998L32.7239 79.2992C31.4307 79.784 30.8166 81.1254 31.3521 82.2954C31.8878 83.4654 33.3704 84.021 34.6633 83.5365L68.817 70.7371L54.6699 101.639C54.1342 102.809 54.7477 104.149 56.0415 104.634C56.6883 104.877 57.3823 104.859 57.9812 104.634C58.5801 104.41 59.0845 103.979 59.3527 103.393L73.5 72.4916L87.6467 103.393C88.1825 104.562 89.6651 105.118 90.9583 104.634C92.2514 104.149 92.8655 102.808 92.3301 101.638L78.1833 70.7366L112.338 83.5363C112.984 83.7789 113.678 83.761 114.277 83.5365C114.876 83.3121 115.381 82.8806 115.649 82.2954C116.185 81.1251 115.571 79.7845 114.277 79.2998L80.1225 66.4998L114.276 53.7004C115.569 53.2157 116.183 51.8742 115.648 50.7042C115.112 49.5343 113.63 48.9786 112.336 49.4631Z" fill="#EBDED4"/>
<path d="M140.939 59.5131C134.477 58.1033 125.829 57.3274 116.586 57.3274C107.343 57.3274 98.695 58.1033 92.2339 59.5131C92.0883 59.5448 91.9563 59.6009 91.8144 59.6393C91.9448 59.5759 92.0788 59.5256 92.2066 59.4546C97.8782 56.3174 104.599 51.3336 111.135 45.4205C117.67 39.5075 123.179 33.4264 126.646 28.295C128.562 25.4622 128.079 21.8367 125.469 19.4751C122.863 17.117 118.856 16.6803 115.726 18.4148C110.055 21.552 103.334 26.5358 96.7981 32.4489C90.2626 38.3619 84.7541 44.443 81.2867 49.5745C81.2003 49.7025 81.144 49.8397 81.0673 49.9709C81.1156 49.8288 81.1833 49.696 81.2224 49.5498C82.7805 43.7043 83.6381 35.8801 83.6381 27.517C83.6381 19.1538 82.7805 11.3297 81.2224 5.48391C80.3608 2.25503 77.1879 0 73.4963 0C69.8121 0 66.6389 2.25503 65.7779 5.48417C64.2198 11.3299 63.3622 19.1543 63.3622 27.5172C63.3622 35.8801 64.2198 43.7045 65.7779 49.5503C65.817 49.6965 65.8847 49.8295 65.9329 49.9714C65.856 49.8402 65.8003 49.703 65.7136 49.575C62.2462 44.4436 56.7377 38.3624 50.2022 32.4494C43.6668 26.5364 36.9455 21.5525 31.274 18.4153C28.1453 16.6842 24.1384 17.1178 21.5257 19.4801C18.9205 21.8372 18.4382 25.4625 20.3538 28.2952C23.8212 33.4266 29.3297 39.5078 35.8651 45.4208C42.4006 51.3338 49.1218 56.3177 54.7934 59.4549C54.9209 59.5253 55.0555 59.5762 55.1853 59.6396C55.0435 59.6009 54.9117 59.545 54.7661 59.5133C48.305 58.1033 39.657 57.3274 30.4138 57.3274C21.1706 57.3274 12.5226 58.1033 6.06145 59.5131C2.4924 60.2926 0 63.1633 0 66.5034C0 69.8367 2.4924 72.7076 6.06145 73.4867C12.5226 74.8964 21.1706 75.6723 30.4138 75.6723C39.657 75.6723 48.305 74.8964 54.7661 73.4867C54.9272 73.4513 55.073 73.3905 55.2292 73.3472C55.0848 73.4165 54.9341 73.4667 54.7934 73.5448C49.1218 76.682 42.4006 81.6659 35.8651 87.5789C29.3297 93.492 23.8212 99.5731 20.3538 104.705C18.4379 107.537 18.9208 111.163 21.5306 113.524C23.0701 114.917 25.0985 115.639 27.1476 115.639C28.5659 115.639 29.9926 115.293 31.2734 114.584C36.9449 111.447 43.6662 106.463 50.2016 100.55C56.7371 94.6373 62.2456 88.5562 65.713 83.4248C65.7994 83.2967 65.8557 83.1595 65.9324 83.0284C65.8841 83.1705 65.8164 83.3032 65.7773 83.4494C64.2195 89.2952 63.3619 97.1196 63.3619 105.483C63.3619 113.845 64.2195 121.67 65.7776 127.516C66.6389 130.745 69.8118 133 73.5037 133C77.1879 133 80.3611 130.745 81.2221 127.516C82.7802 121.67 83.6378 113.845 83.6378 105.483C83.6378 97.1196 82.7802 89.2952 81.2221 83.4494C81.183 83.3032 81.1153 83.1702 81.0671 83.0284C81.144 83.1595 81.1997 83.2967 81.2864 83.4248C84.7538 88.5562 90.2623 94.6373 96.7978 100.55C103.333 106.463 110.054 111.447 115.726 114.584C117.006 115.293 118.433 115.639 119.851 115.639C121.9 115.639 123.931 114.916 125.474 113.52C128.079 111.163 128.562 107.537 126.646 104.705C123.179 99.5731 117.67 93.492 111.135 87.5789C104.599 81.6659 97.8782 76.682 92.2066 73.5448C92.0648 73.4667 91.9129 73.4155 91.7676 73.3461C91.925 73.39 92.072 73.4513 92.2339 73.4867C98.695 74.8964 107.343 75.6723 116.586 75.6723C125.829 75.6723 134.477 74.8964 140.939 73.4867C144.508 72.7074 147 69.8367 147 66.4964C147 63.1633 144.508 60.2926 140.939 59.5131Z" fill="#FFF5DC"/>
<path d="M116.586 64.2064H79.6183L105.759 40.5553C106.749 39.6596 106.749 38.2083 105.759 37.3126C104.769 36.4169 103.165 36.4169 102.175 37.3126L76.0346 60.9637V27.5168C76.0346 26.2505 74.8997 25.2236 73.5 25.2236C72.1003 25.2236 70.9654 26.2505 70.9654 27.5168V60.9637L44.8247 37.3126C43.8347 36.4169 42.2306 36.4169 41.2407 37.3126C40.2507 38.2083 40.2507 39.6596 41.2407 40.5553L67.3814 64.2064H30.4138C29.0141 64.2064 27.8792 65.2333 27.8792 66.4996C27.8792 67.766 29.0141 68.7928 30.4138 68.7928H67.3814L41.2407 92.444C40.2507 93.3396 40.2507 94.791 41.2407 95.6866C41.7359 96.1347 42.384 96.3584 43.0325 96.3584C43.6811 96.3584 44.3297 96.1345 44.8244 95.6866L70.9654 72.0352V105.482C70.9654 106.749 72.1003 107.776 73.5 107.776C74.8997 107.776 76.0346 106.749 76.0346 105.482V72.0352L102.175 95.6864C102.671 96.1345 103.319 96.3581 103.967 96.3581C104.616 96.3581 105.264 96.1342 105.759 95.6864C106.749 94.7907 106.749 93.3394 105.759 92.4437L79.6183 68.7928H116.586C117.986 68.7928 119.121 67.766 119.121 66.4996C119.121 65.2333 117.986 64.2064 116.586 64.2064Z" fill="#F0E4C8"/>
<path d="M140.939 59.5131C134.477 58.1033 125.829 57.3274 116.586 57.3274C107.343 57.3274 98.695 58.1033 92.2339 59.5131C92.0883 59.5448 91.9563 59.6009 91.8144 59.6393C91.9448 59.5759 92.0788 59.5256 92.2066 59.4546C97.8782 56.3174 104.599 51.3336 111.135 45.4205C117.67 39.5075 123.179 33.4264 126.646 28.295C128.562 25.4622 128.079 21.8367 125.469 19.4751C122.863 17.117 118.856 16.6803 115.726 18.4148C110.055 21.552 103.334 26.5358 96.7981 32.4489C90.2626 38.3619 84.7541 44.443 81.2867 49.5745C81.2003 49.7025 81.144 49.8397 81.0673 49.9709C81.1156 49.8288 81.1833 49.696 81.2224 49.5498C82.7805 43.7043 83.6381 35.8801 83.6381 27.517C83.6381 19.1538 82.7805 11.3297 81.2224 5.48391C80.3608 2.25503 77.1879 0 73.4963 0C69.8121 0 66.6389 2.25503 65.7779 5.48417C64.2198 11.3299 63.3622 19.1543 63.3622 27.5172C63.3622 35.8801 64.2198 43.7045 65.7779 49.5503C65.817 49.6965 65.8847 49.8295 65.9329 49.9714C65.856 49.8402 65.8003 49.703 65.7136 49.575C62.2462 44.4436 56.7377 38.3624 50.2022 32.4494C43.6668 26.5364 36.9455 21.5525 31.274 18.4153C28.1453 16.6842 24.1384 17.1178 21.5257 19.4801C18.9205 21.8372 18.4382 25.4625 20.3538 28.2952C23.8212 33.4266 29.3297 39.5078 35.8651 45.4208C42.4006 51.3338 49.1218 56.3177 54.7934 59.4549C54.9209 59.5253 55.0555 59.5762 55.1853 59.6396C55.0435 59.6009 54.9117 59.545 54.7661 59.5133C48.305 58.1033 39.657 57.3274 30.4138 57.3274C21.1706 57.3274 12.5226 58.1033 6.06145 59.5131C2.4924 60.2926 0 63.1633 0 66.5034C0 69.8367 2.4924 72.7076 6.06145 73.4867C12.5226 74.8964 21.1706 75.6723 30.4138 75.6723C39.657 75.6723 48.305 74.8964 54.7661 73.4867C54.9272 73.4513 55.073 73.3905 55.2292 73.3472C55.0848 73.4165 54.9341 73.4667 54.7934 73.5448C49.1218 76.682 42.4006 81.6659 35.8651 87.5789C29.3297 93.492 23.8212 99.5731 20.3538 104.705C18.4379 107.537 18.9208 111.163 21.5306 113.524C23.0701 114.917 25.0985 115.639 27.1476 115.639C28.5659 115.639 29.9926 115.293 31.2734 114.584C36.9449 111.447 43.6662 106.463 50.2016 100.55C56.7371 94.6373 62.2456 88.5562 65.713 83.4248C65.7994 83.2967 65.8557 83.1595 65.9324 83.0284C65.8841 83.1705 65.8164 83.3032 65.7773 83.4494C64.2195 89.2952 63.3619 97.1196 63.3619 105.483C63.3619 113.845 64.2195 121.67 65.7776 127.516C66.6389 130.745 69.8118 133 73.5037 133C77.1879 133 80.3611 130.745 81.2221 127.516C82.7802 121.67 83.6378 113.845 83.6378 105.483C83.6378 97.1196 82.7802 89.2952 81.2221 83.4494C81.183 83.3032 81.1153 83.1702 81.0671 83.0284C81.144 83.1595 81.1997 83.2967 81.2864 83.4248C84.7538 88.5562 90.2623 94.6373 96.7978 100.55C103.333 106.463 110.054 111.447 115.726 114.584C117.006 115.293 118.433 115.639 119.851 115.639C121.9 115.639 123.931 114.916 125.474 113.52C128.079 111.163 128.562 107.537 126.646 104.705C123.179 99.5731 117.67 93.492 111.135 87.5789C104.599 81.6659 97.8782 76.682 92.2066 73.5448C92.0648 73.4667 91.9129 73.4155 91.7676 73.3461C91.925 73.39 92.072 73.4513 92.2339 73.4867C98.695 74.8964 107.343 75.6723 116.586 75.6723C125.829 75.6723 134.477 74.8964 140.939 73.4867C144.508 72.7074 147 69.8367 147 66.4964C147 63.1633 144.508 60.2926 140.939 59.5131Z" fill="#FFF5DC"/>
<path d="M116.586 64.2064H79.6183L105.759 40.5553C106.749 39.6596 106.749 38.2083 105.759 37.3126C104.769 36.4169 103.165 36.4169 102.175 37.3126L76.0346 60.9637V27.5168C76.0346 26.2505 74.8997 25.2236 73.5 25.2236C72.1003 25.2236 70.9654 26.2505 70.9654 27.5168V60.9637L44.8247 37.3126C43.8347 36.4169 42.2306 36.4169 41.2407 37.3126C40.2507 38.2083 40.2507 39.6596 41.2407 40.5553L67.3814 64.2064H30.4138C29.0141 64.2064 27.8792 65.2333 27.8792 66.4996C27.8792 67.766 29.0141 68.7928 30.4138 68.7928H67.3814L41.2407 92.444C40.2507 93.3396 40.2507 94.791 41.2407 95.6866C41.7359 96.1347 42.384 96.3584 43.0325 96.3584C43.6811 96.3584 44.3297 96.1345 44.8244 95.6866L70.9654 72.0352V105.482C70.9654 106.749 72.1003 107.776 73.5 107.776C74.8997 107.776 76.0346 106.749 76.0346 105.482V72.0352L102.175 95.6864C102.671 96.1345 103.319 96.3581 103.967 96.3581C104.616 96.3581 105.264 96.1342 105.759 95.6864C106.749 94.7907 106.749 93.3394 105.759 92.4437L79.6183 68.7928H116.586C117.986 68.7928 119.121 67.766 119.121 66.4996C119.121 65.2333 117.986 64.2064 116.586 64.2064Z" fill="#F0E4C8"/>
<path d="M73.5 84.8451C84.6981 84.8451 93.776 76.6318 93.776 66.5002C93.776 56.3686 84.6981 48.1553 73.5 48.1553C62.3019 48.1553 53.2241 56.3686 53.2241 66.5002C53.2241 76.6318 62.3019 84.8451 73.5 84.8451Z" fill="#FFD728"/>
<path d="M73.5 77.9653C80.4988 77.9653 86.1724 72.832 86.1724 66.4997C86.1724 60.1675 80.4988 55.0342 73.5 55.0342C66.5012 55.0342 60.8276 60.1675 60.8276 66.4997C60.8276 72.832 66.5012 77.9653 73.5 77.9653Z" fill="#FFBE23"/>
</g>
<defs>
<clipPath id="clip0_61_1082">
<rect width="147" height="133" fill="white"/>
</clipPath>
</defs>
</svg>
