<svg width="106" height="110" viewBox="0 0 106 110" fill="none" xmlns="http://www.w3.org/2000/svg">
<g filter="url(#filter0_d_246_387)">
<path fill-rule="evenodd" clip-rule="evenodd" d="M53.1532 1C73.6532 1 52.2966 42.31 55.6253 43.3915C58.954 44.4731 65.9576 -1.50045 82.5424 10.5492C99.1273 22.5987 57.5681 43.4662 59.6253 46.2977C61.6826 49.1293 94.3711 16.0525 100.706 35.5491C107.041 55.0458 61.1532 47.5 61.1532 51C61.1532 54.5 107.041 46.9542 100.706 66.4509C94.3711 85.9475 61.6826 52.8707 59.6253 55.7023C57.5681 58.5338 99.1273 79.4013 82.5424 91.4509C65.9576 103.5 58.954 57.5269 55.6253 58.6085C52.2966 59.69 73.6532 101 53.1532 101C32.6532 101 54.0097 59.69 50.681 58.6085C47.3523 57.5269 40.3488 103.5 23.7639 91.4509C7.17906 79.4013 48.7383 58.5338 46.681 55.7023C44.6238 52.8707 11.9352 85.9475 5.60034 66.4509C-0.734504 46.9542 45.1532 54.5 45.1532 51C45.1532 47.5 -0.734504 55.0458 5.60034 35.5491C11.9352 16.0525 44.6238 49.1293 46.681 46.2977C48.7383 43.4662 7.17906 22.5987 23.7639 10.5492C40.3488 -1.50045 47.3523 44.4731 50.681 43.3915C54.0097 42.31 32.6532 1 53.1532 1Z" stroke="#FFCC34" shape-rendering="crispEdges"/>
</g>
<defs>
<filter id="filter0_d_246_387" x="0.499992" y="0.5" width="105.306" height="109" filterUnits="userSpaceOnUse" color-interpolation-filters="sRGB">
<feFlood flood-opacity="0" result="BackgroundImageFix"/>
<feColorMatrix in="SourceAlpha" type="matrix" values="0 0 0 0 0 0 0 0 0 0 0 0 0 0 0 0 0 0 127 0" result="hardAlpha"/>
<feOffset dy="4"/>
<feGaussianBlur stdDeviation="2"/>
<feComposite in2="hardAlpha" operator="out"/>
<feColorMatrix type="matrix" values="0 0 0 0 0 0 0 0 0 0 0 0 0 0 0 0 0 0 0.25 0"/>
<feBlend mode="normal" in2="BackgroundImageFix" result="effect1_dropShadow_246_387"/>
<feBlend mode="normal" in="SourceGraphic" in2="effect1_dropShadow_246_387" result="shape"/>
</filter>
</defs>
</svg>
